# xmcd CD database file
#
# Track frame offsets:
#	150
#	34097
#	61393
#	94515
#	125671
#	160916
#	194890
#	224260
#	243853
#	251052
#
# Disc length: 3807 seconds
#
# Revision: 0
# Processed by: cddbd v1.5.1PL0 Copyright (c) Steve Scherf et al.
# Submitted via: CDex 1.51
#
DISCID=900edd0a
DTITLE=the bill evans trio - Live in London
DYEAR=1900
DGENRE=Jazz
TTITLE0=Beautiful Love
TTITLE1=Love Is Here To Stay
TTITLE2=Spring Is Here
TTITLE3=Someday My Prince Will Come
TTITLE4=Who Can I Turn To?
TTITLE5=Nardis
TTITLE6=Detour Ahead
TTITLE7=My Romance
TTITLE8=Bill's Play-off Music
TTITLE9=Interview Excerpt with Bill Evans
EXTD=
EXTT0=
EXTT1=
EXTT2=
EXTT3=
EXTT4=
EXTT5=
EXTT6=
EXTT7=
EXTT8=
EXTT9=
PLAYORDER=
